<svg id="Réteg_1" data-name="Réteg 1" xmlns="http://www.w3.org/2000/svg" viewBox="0 0 300 300"><defs><style>.cls-1{fill:#fefefe;fill-rule:evenodd;}</style></defs><title>google</title><path class="cls-1" d="M269.78,127.68h-6.15v-5.43c0-7.86.14-15.58-.14-23.31,0-1.29-1.29-3.58-2.15-3.58-7-.29-14.15-.29-21.59-.29v32.46h-32.6v5.72l.86,17.59c5.72.29,11.44.57,17.16.71H240v31.89h23.45v-32h32.17V127.68ZM177.56,125c-20.16.29-40.46,0-60.77,0-5.72,0-11.58,0-17.3.14-1.14.14-3.15,1.43-3.15,2.15-.14,11.73-.14,23.31-.14,35.75h49.62c-.57,2.29-1,4.14-1.58,5.72-7.58,22.59-30.88,33.75-55.9,29.74-31-5.15-50.32-33.89-44.9-64.92a54.1,54.1,0,0,1,4-12.58c10.29-22.59,35.6-36.18,60.77-30.74a52.25,52.25,0,0,1,23.3,12.15c9-9.15,17.73-18,27.16-27.45a11.82,11.82,0,0,1-2.29-1.71c-22-18.59-47-25.31-75.35-20.73C40.59,59.19,11.42,91.07,5,128.25a90.06,90.06,0,0,0,4.86,49.19,93.43,93.43,0,0,0,97.8,59.06c20.73-2.29,39.17-9.72,53.76-25.17,21.3-22.74,26.88-50.33,23.45-80.5-.57-5-2.57-6-7.29-5.86Z"/></svg>