<svg id="Réteg_1" data-name="Réteg 1" xmlns="http://www.w3.org/2000/svg" viewBox="0 0 300 300"><defs><style>.cls-1{fill:#fefefe;fill-rule:evenodd;}</style></defs><title>twitter</title><path class="cls-1" d="M295.65,69.1a121.14,121.14,0,0,1-34.23,9.34,59.38,59.38,0,0,0,26.26-32.61,121.44,121.44,0,0,1-38,14.31A60.28,60.28,0,0,0,206,41.59c-33,0-59.74,26.26-59.74,58.75a60.19,60.19,0,0,0,1.49,13.44A170.83,170.83,0,0,1,24.59,52.29a58.25,58.25,0,0,0,18.54,78.54A60.37,60.37,0,0,1,16,123.49v.75a57.37,57.37,0,0,0,4.11,21.29A59.67,59.67,0,0,0,64,182a66.3,66.3,0,0,1-15.81,2A65.86,65.86,0,0,1,37,183a59.59,59.59,0,0,0,55.75,40.82,120.77,120.77,0,0,1-74.17,25.27A136,136,0,0,1,4.3,248.2,171.79,171.79,0,0,0,96,274.59c93.34,0,150.83-64.72,165.9-131.81a159.66,159.66,0,0,0,4.1-35.6c0-2.49,0-5.1-.12-7.59A119.44,119.44,0,0,0,295.65,69.1Z"/></svg>