<svg id="Réteg_1" data-name="Réteg 1" xmlns="http://www.w3.org/2000/svg" viewBox="0 0 300 300"><defs><style>.cls-1{fill:#fefefe;fill-rule:evenodd;}</style></defs><title>viber</title><path class="cls-1" d="M158.59,258.13a115.26,115.26,0,0,1-63.5-18.9L50.6,253.35l14.47-42.58a114.19,114.19,0,0,1-22-67.22c0-3.83.24-7.54.6-11.12,5.62-58,55-103.58,114.93-103.58,60.75,0,110.62,46.65,115.17,105.73q.36,4.31.36,9c0,63.15-51.79,114.58-115.53,114.58Zm63-87.07c-3.47-1.67-20-9.81-23.08-10.89s-5.38-1.67-7.54,1.67a164.71,164.71,0,0,1-10.76,13c-1.92,2.27-3.83,2.51-7.3.84s-14.11-5.15-27-16.51c-10-8.85-16.74-19.85-18.78-23.2s-.12-5.14,1.55-6.82c1.44-1.44,3.35-3.83,5-5.86a13,13,0,0,0,1.2-1.56c.84-1.32,1.31-2.39,2.15-3.95a6.27,6.27,0,0,0-.24-5.86c-.84-1.67-7.66-18.18-10.4-24.88s-5.62-5.5-7.65-5.5-4.19-.36-6.46-.36a12.56,12.56,0,0,0-9,4.19c-3,3.35-11.72,11.48-11.72,27.87a39.58,39.58,0,0,0,1.67,11.36,75.85,75.85,0,0,0,12.08,23.21c1.67,2.27,23.32,37.07,57.52,50.47s34.21,9,40.42,8.37,20-8,22.72-15.91,2.87-14.47,2-15.91-3.11-2.15-6.46-3.83Zm74.39-31c-1.92-73.68-62.67-133-137.41-133C84.8,7.08,24.52,65,21.29,137.57c0,1.91-.12,3.95-.12,6A134.85,134.85,0,0,0,40.91,214L16.15,287.08l76.06-24.16a136.92,136.92,0,0,0,66.37,17c75.94,0,137.41-61,137.41-136.35v-3.47Z"/></svg>