<svg id="Réteg_1" data-name="Réteg 1" xmlns="http://www.w3.org/2000/svg" viewBox="0 0 300 180"><defs><style>.cls-1{fill:#3f2322;}.cls-2{fill:#643e39;}.cls-3{fill:#f6e1d0;}.cls-4{fill:#4c706c;}.cls-5{fill:#cb8c84;}.cls-6{fill:#81b5b0;}.cls-7{fill:#926d5a;}.cls-8{fill:#9ed9d5;}.cls-9{fill:#f0beb4;}</style></defs><title>tatu_logo</title><path class="cls-1" d="M256.62,75.2c-1.19.24-2.89,1.78-2.79,3.1a7.75,7.75,0,0,0,.11.77A2.51,2.51,0,0,0,254,80c.78,2.84,5.19,3.81,6.56,1C261.84,78.31,259.7,74.57,256.62,75.2Z"/><path class="cls-2" d="M257.63,78.71a.79.79,0,0,0-.08-.15,1.67,1.67,0,0,0-.92-1.15,1.62,1.62,0,0,0-1.4,0l-.06,0a1,1,0,0,0-.14.11,1.13,1.13,0,0,0-.16.12,2.12,2.12,0,0,0-.54,1.26,1.66,1.66,0,0,0,1.13,1.54l.09,0a1.79,1.79,0,0,0,.39.11h0a1.62,1.62,0,0,0,.55,0,1.37,1.37,0,0,0,.25-.09,1.66,1.66,0,0,0,.27-.14l.09-.07A1.42,1.42,0,0,0,257.63,78.71Z"/><path class="cls-3" d="M256.85,78.2a1.05,1.05,0,0,0,0,2.1A1.05,1.05,0,0,0,256.85,78.2Z"/><path class="cls-3" d="M259.74,77.93a.74.74,0,0,0,0,1.49A.74.74,0,0,0,259.74,77.93Z"/><path class="cls-3" d="M258.73,80.25a.6.6,0,0,0,0,1.19A.6.6,0,0,0,258.73,80.25Z"/><path class="cls-4" d="M266.13,39.75c-9.44,1.26-10.42,13.93-17.94,17.86-2.32.57-4.15,1.84-3.85,4.61.31,2.95,4.71,3.53,6.93,3.52,8.41,0,18.5-3.66,22.37-11.6C276.57,48.1,274.25,38.67,266.13,39.75Z"/><path class="cls-5" d="M262.88,48.34c-5,3.61-8.07,9.72-14.12,11.81a.68.68,0,0,0-.45.89.82.82,0,0,0,.35,1.09c1.67.94,3.46.28,5.24-.07a35.3,35.3,0,0,0,7.73-2.41c4.29-2,8.86-4.59,9.26-9.76C271.31,44.43,265.34,46.54,262.88,48.34Z"/><path class="cls-6" d="M98.1,108a100.87,100.87,0,0,1-10-8.81c-1.38-1.4-4.43-5.65-6.94-5.11a.49.49,0,0,0-.46,0c-.53.31-1,.65-1.56,1a92.21,92.21,0,0,0-10.76,7.13Q61.61,106.3,54.6,110a226.44,226.44,0,0,1-28.52,12.75c-3.93,1.43-8.24,2.51-12,4.23-2,.92-6.53,2.61-5.35,5.55,1,2.57,6.15,1.14,8,.9,5-.66,10-2,14.92-3.09,10.31-2.3,20.76-4,31.11-6.13s21-3.09,31.28-5.58c2.57-.62,7.93-1.34,9.13-4.16C104.17,112,99.59,109.14,98.1,108Z"/><path class="cls-6" d="M290.4,111.41c-1.4-3.24-5.49-3.86-8.46-4.84a39.09,39.09,0,0,1-13.51-8C261,92,256.56,81.28,253.1,72.29,250.32,65,249,55,240.62,52.11c-5-1.74-11,0-15.35,2.74a62.9,62.9,0,0,0-6.45,4.76c-1.61,1.33-3,3-4.49,4.42-.78.75-1.43,1.73-2.17,2.59a.87.87,0,0,0-.93.4c-.29.43-.54.78-.76,1.12a.67.67,0,0,0-.25.41,3.87,3.87,0,0,0-.47,1.54c-.15,1.48.17,3.25.17,4.75,0,4.74,0,9.5,1.33,14.09,2.36,8.3,9.71,13.64,16.38,18.39,15.31,10.91,34.73,19.25,53.85,17.17,3-.32,6.7-1.08,8.53-3.73S291.61,114.2,290.4,111.41Z"/><path class="cls-7" d="M279.67,111.31A16.88,16.88,0,0,1,267.25,109a27,27,0,0,1-8.84-8.43,1,1,0,0,0-1.73.23,17.3,17.3,0,0,0,1.56,10.8,9.2,9.2,0,0,0,5.18,4.64c6.07,2.23,12.57,1.43,17.3-3.06C281.57,112.32,280.67,111.14,279.67,111.31Z"/><path class="cls-4" d="M103.62,109.09c-2.9.37-5,2.56-6.41,5.12-3.16,3.36-5.61,8-7.61,11.91a50,50,0,0,0-5.1,17.09c-.54,5,.73,10.5,5,13.6,3.46,2.53,7.61.47,8.89-3.2,2-5.79,1.09-12.32,2.65-18.27,1.75-6.69,5.33-12.68,7.54-19.19C109.82,112.35,107.91,108.54,103.62,109.09Z"/><path class="cls-4" d="M130.48,139.76c-3.78-6.3-3-13.75-3-20.76,0-4.61-1.07-9.59-5.26-12.1a5.26,5.26,0,0,0-7.86,3.89s0,0,0,.05a28.91,28.91,0,0,0-.3,3.61c-.21,3.37.06,6.76-.09,10.13a64.57,64.57,0,0,0,1.6,17.72c1.13,4.79,3.08,9.47,7.47,12.06,3.67,2.17,8.26.39,10.69-2.87C137,147,132.54,143.2,130.48,139.76Z"/><path class="cls-4" d="M200.51,138.84a15,15,0,0,1-2-6.91c-.62-6.81,1.81-13.34,3.29-19.89,1-4.28,1.63-9.33-2.56-12-2.2-1.38-4.74-.36-6.53,1.39a.45.45,0,0,0-.36.17c-3.13,4-5.36,10.28-6.45,15.24a63,63,0,0,0-1.61,19.55c.42,4.66,1.23,10.92,5.48,13.73,3.85,2.55,9,1.78,11.09-2.54a8.43,8.43,0,0,0,.94-5.71A10.53,10.53,0,0,0,200.51,138.84Z"/><path class="cls-4" d="M231.62,132.78a10.53,10.53,0,0,0-2.6-2.09,15,15,0,0,1-5-5.15c-3.77-5.7-4.74-12.6-6.54-19.07-1.18-4.22-3-9-7.93-9.31-2.59-.17-4.35,1.93-5.09,4.32a.45.45,0,0,0-.24.33c-.84,5,.16,11.6,1.55,16.47a63,63,0,0,0,7.85,18c2.58,3.9,6.26,9,11.33,9.49,4.59.42,8.77-2.7,8.55-7.5A8.43,8.43,0,0,0,231.62,132.78Z"/><path class="cls-8" d="M221.9,55.9c-1.84-8.32-7.58-16.53-13.68-22.28-13.7-12.91-32-16.7-50.23-16.7-19.87,0-39.12,9.07-55.18,20S72.67,62.19,65.14,80.54c-2.91,7.09-5,14.61-4.58,22.34a24.4,24.4,0,0,0,.66,4.48,24.64,24.64,0,0,0,.53,3.19c2.06,8.63,9.51,12.37,17.64,13.37A33.89,33.89,0,0,0,91,122.86c2.48-.57,4.84-1.51,7.35-2s5.29-.87,7.92-1.42c9.82-2,19.67-5.72,29.78-6,4.3-.11,8.61-.79,12.93-.88,5.25-.1,10.39-.09,15.64.28a185.14,185.14,0,0,0,29.5-.08c7.85-.69,17.52-3.64,23.45-9s6.13-13.41,6.41-20.9A106.11,106.11,0,0,0,221.9,55.9Z"/><path class="cls-1" d="M232.46,80.16c-1.19.24-2.89,1.78-2.79,3.1a7.75,7.75,0,0,0,.11.77,2.51,2.51,0,0,0,.06.89c.78,2.84,5.19,3.81,6.56,1C237.67,83.27,235.53,79.53,232.46,80.16Z"/><path class="cls-4" d="M224.51,62.63c-2.08-1.65-4.38-2.95-6.42-4.68-2.56-2.17-4.19-5.52-5.73-8.44-2.33-4.43-4.91-9.85-10-11.6-3.85-1.33-7.93,1.75-9.06,5.36-1.43,4.59.13,10.21,2.85,14,3.31,4.61,8.43,7.24,13.49,9.46,3.45,1.51,8.87,3,12.91,2,.41,0,.81-.06,1.21-.11C227.76,68.09,226.95,64.56,224.51,62.63Z"/><path class="cls-5" d="M211.84,56.61c-2.23-2.71-4.18-5.75-6.26-8.58-1.61-2.18-5.66-4.67-7.26-.93-2.34,5.47,2.1,10.17,6.47,13a27.3,27.3,0,0,0,6.53,3.22c1.54.48,4.29,1.77,6.16,1.34l.48.08A1,1,0,0,0,218.8,63C216.45,60.78,213.95,59.17,211.84,56.61Z"/><path class="cls-9" d="M243.61,98a10,10,0,0,0-7.75-5.27c-3.54-.48-6.17,2.53-7.08,5.62a6.94,6.94,0,0,0,3,8.09,6.22,6.22,0,0,0,.74.57c2.54,1.61,5.58,1.3,8.2.1C244.17,105.51,245.17,101.26,243.61,98Z"/><path class="cls-6" d="M99.26,149.59c-1.83-1.22-3.91.12-5.16,1.66a2.93,2.93,0,0,0-4.63,1.19c-1.33-.54-2.54-.83-3.66-.18a12.62,12.62,0,0,0,.75,1.36c.8-.4,2.61.76,3.07,1a1,1,0,0,0,1.45-.83c.08-1.18,1.48-1.86,2.22-.31a1,1,0,0,0,1.7,0c.41-.83,2.44-4,3.86-1.61q.27-1.09.45-2.21Z"/><path class="cls-6" d="M132.86,143.17a3.36,3.36,0,0,0-.8.22c-2.07.86-2.47,2.57-2.71,4.48a3.6,3.6,0,0,0-3.71-.07,2.89,2.89,0,0,0-1.36,3.16,3.49,3.49,0,0,0-4.15,1,13,13,0,0,0,1.57,1.44c.3-1.08,1.12-1.6,3-.05a1,1,0,0,0,1.67-.69,3.23,3.23,0,0,0,0-1.06c-.26-1.9,2-2.09,3.36-1.29a1,1,0,0,0,1.51-.87c.1-.78.15-1.57.26-2.35.25-1.76,2.19-1.22,3.3-.2A11.59,11.59,0,0,0,132.86,143.17Z"/><path class="cls-6" d="M201.44,140.74a10.67,10.67,0,0,0-.84-1.74c-1.68.55-2.35,2-2.82,3.79-1.57-.79-3.48-1.07-4.88.33-.89.89-.82,1.89-1.18,3l-.07.21a2.77,2.77,0,0,0-2.81-.06,4.31,4.31,0,0,0-1.34,1.65,9.07,9.07,0,0,0,1.57,1.71c.31-1.62,1.12-3,2.78-.85a.94.94,0,0,0,1.33,0,1.75,1.75,0,0,0,.42-2c-.19-.32-.06-.1.11-.61.88-2.55,2.64-2.25,4-1.17a1,1,0,0,0,1.67-.44C199.52,144.08,200,140.72,201.44,140.74Z"/><path class="cls-6" d="M232.11,133.38a6,6,0,0,0-.48-.6,10.52,10.52,0,0,0-1.66-1.47,4.69,4.69,0,0,0-1,3.7c-1.35-.46-2.88-.77-3.83.43a3.47,3.47,0,0,0-1,2.2,7.52,7.52,0,0,0,.31,2.29c-1.66-.43-3.42-.34-4.41,1.35a3.68,3.68,0,0,0-.53,2,12.79,12.79,0,0,0,2.11,1.43c-.71-1.68.45-2.49,3.52-2.42a1,1,0,0,0,1.52-.87,4,4,0,0,0-.44-1.94q-.52-1.87,1.71-2.61c.68.17,1.34.5,2,.72.83.28,1.41-.56,1.29-1.29l-.21-1.54A5.12,5.12,0,0,1,232.11,133.38Z"/><path class="cls-2" d="M233.37,83.55a.85.85,0,0,0-.08-.15,1.68,1.68,0,0,0-.93-1.15,1.62,1.62,0,0,0-1.4,0l-.06,0a1.11,1.11,0,0,0-.14.11,1.15,1.15,0,0,0-.16.12,2.12,2.12,0,0,0-.54,1.26,1.66,1.66,0,0,0,1.13,1.54l.09,0a1.81,1.81,0,0,0,.39.11h0a1.63,1.63,0,0,0,.56,0,1.36,1.36,0,0,0,.25-.09,1.6,1.6,0,0,0,.27-.14l.1-.07A1.42,1.42,0,0,0,233.37,83.55Z"/><path class="cls-3" d="M232.6,83a1.05,1.05,0,0,0,0,2.1A1.05,1.05,0,0,0,232.6,83Z"/><path class="cls-3" d="M235.48,82.77a.74.74,0,0,0,0,1.49A.74.74,0,0,0,235.48,82.77Z"/><path class="cls-3" d="M234.47,85.08a.6.6,0,0,0,0,1.19A.6.6,0,0,0,234.47,85.08Z"/><path class="cls-8" d="M59,118.76a57,57,0,0,1-1.92-10.1c-.66.36-1.31.73-2,1.08a25.48,25.48,0,0,0,4.69,15.06l2.57-.51A15.87,15.87,0,0,1,59,118.76Z"/><path class="cls-8" d="M52.75,119.38a19.64,19.64,0,0,1-1.22-7.81l-2.06,1a30,30,0,0,0,.64,5.24,17.55,17.55,0,0,0,3.94,8.07l2.6-.51A24.12,24.12,0,0,1,52.75,119.38Z"/><path class="cls-8" d="M45.16,114.72l-2.12,1a27.14,27.14,0,0,0,1.1,7.44,22,22,0,0,0,1.8,4.32l2.8-.53A19.56,19.56,0,0,1,45.16,114.72Z"/><path class="cls-8" d="M40.11,124.21a11.3,11.3,0,0,1-.83-6.78c-.74.33-1.49.64-2.24,1a15.47,15.47,0,0,0,2.7,10.28l2.59-.5A41.86,41.86,0,0,1,40.11,124.21Z"/><path class="cls-8" d="M35.26,129.59a12.39,12.39,0,0,1-2.27-5,15.3,15.3,0,0,1,0-4.52c-.67.27-1.35.52-2,.78-.32,3.18.07,6.72,1.74,9.25Z"/><path class="cls-8" d="M26.6,127.11a18,18,0,0,1,0-4.56l-.55.21c-.48.18-1,.34-1.48.5-.32,2.82-.24,6.15,1,8.49l2.62-.6A10,10,0,0,1,26.6,127.11Z"/><path class="cls-8" d="M20,130.78c-.73-2.06-.21-4,0-6-.73.24-1.46.49-2.18.75a7.46,7.46,0,0,0-.17,1.27,16,16,0,0,0,.3,4.56c.11.48.28,1.13.49,1.82.81-.13,1.62-.26,2.43-.41A19.56,19.56,0,0,1,20,130.78Z"/><path class="cls-8" d="M14,127c-.53.24-1.24.54-2,.89a13.74,13.74,0,0,0,0,2.15A7,7,0,0,0,13.5,134c.78-.09,1.53-.22,2.16-.34a9.23,9.23,0,0,1-1.59-4.11,12.86,12.86,0,0,1,.07-2.55Z"/><path class="cls-4" d="M118.06,103.67A86.78,86.78,0,0,1,100.87,85,99.17,99.17,0,0,1,89.49,61.26a51.79,51.79,0,0,1-2.32-11.83c-.56.53-1.12,1.05-1.67,1.59a57.87,57.87,0,0,0,2.19,10.74A98.48,98.48,0,0,0,99.11,86c4.65,7.42,10.77,13.58,17.47,19.15a88.14,88.14,0,0,0,12.65,8.92c1.2-.18,2.4-.34,3.61-.45-1.22-.61-2.44-1.23-3.64-1.88A68.87,68.87,0,0,1,118.06,103.67Z"/><path class="cls-4" d="M168.12,52.56A92.36,92.36,0,0,1,171.59,38a92.79,92.79,0,0,1,8.82-18.75c-.61-.14-1.22-.29-1.84-.42-.36.6-.72,1.2-1.09,1.76a76.2,76.2,0,0,0-6.53,13.45c-3.88,9.5-5.44,19.81-6.6,30a146.66,146.66,0,0,0,.13,29.68c.48,5.16,1.35,10.17,2.23,15.27.23,1.35.5,2.7.81,4l2.36.12c-3.88-14.67-3.79-30-3.79-45.19C166.09,62.87,167.25,57.57,168.12,52.56Z"/><path class="cls-4" d="M140.72,95.84c-4.59-8.89-7.52-18.52-9.87-28.23-2.25-9.25-3.78-19.54-2.89-29.06A121.21,121.21,0,0,1,130.53,23c.06-.28.16-.55.24-.83-.76.28-1.51.56-2.27.86a64,64,0,0,0-2.21,11.77,103,103,0,0,0,2,30.87,123.73,123.73,0,0,0,10.1,30.22,107,107,0,0,0,7.72,12.67c.88,1.28,1.83,2.66,2.86,4l3.22,0c-1.46-1.67-3-3.3-4.24-5A93.25,93.25,0,0,1,140.72,95.84Z"/><path class="cls-4" d="M137.61,108.49c-3-3.43-6-6.49-8.58-10.25-5.1-7.44-10.14-14.86-14.06-23a88.9,88.9,0,0,1-4.49-12.66,90.3,90.3,0,0,1-3.78-15.92,58.32,58.32,0,0,1-.13-12.17l-2,1.34c-.13,1.92-.17,3.86-.15,5.82.1,10.6,3.6,21.41,7.33,31.24,3.59,9.47,9.66,18.26,15.52,26.44a91.12,91.12,0,0,0,8.32,10c1.23,1.29,2.47,2.67,3.8,4,1.06-.08,2.12-.18,3.18-.27A40,40,0,0,1,137.61,108.49Z"/><path class="cls-4" d="M154.75,97.13c-3.11-10.23-6.62-20.4-6.81-31.23-.09-4.9-.61-9.75-.41-14.66a119.57,119.57,0,0,1,1.79-16.82A91.92,91.92,0,0,1,154.62,17c-.64,0-1.28.09-1.93.14l-.19.46a95.86,95.86,0,0,0-4.87,15.07c-2.39,10.45-2.43,21.36-1.84,32A119,119,0,0,0,152,95.36a157.22,157.22,0,0,0,6.44,17.21l2.15.06c-.25-.57-.48-1.14-.68-1.72C158.3,106.27,156.19,101.85,154.75,97.13Z"/><path class="cls-4" d="M159.51,90.52a231.57,231.57,0,0,1-2.36-26.13A160.85,160.85,0,0,1,159,38.95a56.54,56.54,0,0,1,3.54-12.51,54.42,54.42,0,0,1,5.12-9.13l-2.19-.16c-9.09,13.13-10.25,30.49-10.24,46.08,0,9.51,1.28,19,2.52,28.42A128.41,128.41,0,0,0,160.9,106c.53,2.09,1,4.48,1.63,6.76.68,0,1.35.06,2,.11-.79-2.45-1.24-5.12-1.81-7.38A132.34,132.34,0,0,1,159.51,90.52Z"/><path class="cls-4" d="M138.34,62.3C138,58.7,138,55,138,51.43c0-4-.47-8.25.22-12.22.74-4.28,1-8.49,2.15-12.72.71-2.63,1.53-5.22,2.27-7.83-.7.15-1.4.32-2.09.49-.56,1.9-1,3.85-1.58,5.67-1.47,4.84-1.81,9.67-2.67,14.57-.63,3.61-.19,7.54-.2,11.18,0,4.16,0,8.34.39,12.47,1.61,17.77,6.86,35,17.23,49.48h2.42a115,115,0,0,1-10.7-19.19C141,83.57,139.31,72.88,138.34,62.3Z"/><path class="cls-4" d="M140.57,106.73c-2.31-3.12-4.59-6.21-6.62-9.54-4.64-7.61-7.93-16-10.91-24.36s-5.67-16.79-5.87-25.62c-.1-4.31-.41-8.49-.16-12.81a45.36,45.36,0,0,1,1-6.57l-2,1.07c-2.87,14.78,0,30.42,5.14,44.46,3.12,8.55,6.39,17,11.12,24.85,2.9,4.79,6.39,10.55,10.76,14.72,1-.09,2.05-.18,3.08-.25A52.53,52.53,0,0,1,140.57,106.73Z"/><path class="cls-4" d="M122,99.72A154.33,154.33,0,0,1,108.51,82c-4.11-6.34-6.67-13.39-8.81-20.58-1-3.51-1.84-7.11-2.6-10.69a58.07,58.07,0,0,1-1.35-8.69c-.61.48-1.23,1-1.83,1.44.17,5.49,2,11.46,3.17,16.12a86.17,86.17,0,0,0,9.08,22.46,117.57,117.57,0,0,0,13.63,18.18,100,100,0,0,0,9.7,9.74c1.32,1.14,2.63,2.39,4,3.54.83-.07,1.66-.12,2.49-.14l1-.05C131.75,109.07,126.56,104.91,122,99.72Z"/></svg>